<?xml version="1.0" encoding="iso-8859-1"?>
<!-- Generator: Adobe Illustrator 19.0.0, SVG Export Plug-In . SVG Version: 6.00 Build 0)  -->
<svg version="1.1" id="Layer_1" xmlns="http://www.w3.org/2000/svg" xmlns:xlink="http://www.w3.org/1999/xlink" x="0px" y="0px"
	 viewBox="0 0 512 512" style="enable-background:new 0 0 512 512;" xml:space="preserve">
<path style="fill:#FF8C29;" d="M314.206,73.297H12.396c-4.465,0-8.084,3.62-8.084,8.084v340.615c0,4.465,3.62,8.084,8.084,8.084
	h60.901v73.836c0,3.251,1.947,6.185,4.942,7.448c1.014,0.428,2.081,0.636,3.14,0.636c2.068,0,4.104-0.793,5.643-2.294l81.723-79.626
	h145.462c4.466,0,8.084-3.62,8.084-8.084V81.381C322.29,76.916,318.672,73.297,314.206,73.297z"/>
<path style="fill:#FD6A33;" d="M12.396,73.297c-4.465,0-8.084,3.62-8.084,8.084v340.615c0,4.465,3.62,8.084,8.084,8.084h60.901
	v73.836c0,3.251,1.947,6.185,4.942,7.448c1.014,0.428,2.081,0.636,3.14,0.636c2.068,0,4.104-0.793,5.643-2.294l80.59-78.524V73.297
	H12.396z"/>
<g>
	<path style="fill:#FFFFFF;" d="M253.844,142.282H72.758c-4.465,0-8.084,3.62-8.084,8.084v25.869c0,4.465,3.62,8.084,8.084,8.084
		h181.086c4.466,0,8.084-3.62,8.084-8.084v-25.869C261.928,145.902,258.31,142.282,253.844,142.282z"/>
	<path style="fill:#FFFFFF;" d="M253.844,228.514H72.758c-4.465,0-8.084,3.62-8.084,8.084v25.869c0,4.465,3.62,8.084,8.084,8.084
		h181.086c4.466,0,8.084-3.62,8.084-8.084v-25.869C261.928,232.133,258.31,228.514,253.844,228.514z"/>
	<path style="fill:#FFFFFF;" d="M253.844,314.745H72.758c-4.465,0-8.084,3.62-8.084,8.084v25.869c0,4.465,3.62,8.084,8.084,8.084
		h181.086c4.466,0,8.084-3.62,8.084-8.084v-25.869C261.928,318.365,258.31,314.745,253.844,314.745z"/>
</g>
<path style="fill:#4ACFD9;" d="M434.389,312.293c46.03-32.869,73.299-84.029,73.299-138.213C507.688,78.092,423.794,0,320.674,0
	C217.553,0,133.659,78.092,133.659,174.08s83.894,174.08,187.015,174.08c15.732,0,31.373-1.831,46.533-5.446l82.131,30.8
	c0.925,0.347,1.886,0.515,2.837,0.515c2.25,0,4.447-0.94,6.01-2.675c2.225-2.471,2.71-6.051,1.222-9.024L434.389,312.293z"/>
<path style="fill:#0295AA;" d="M133.659,174.08c0,95.988,83.894,174.08,187.015,174.08V0C217.553,0,133.659,78.092,133.659,174.08z"
	/>
<g>
	<path style="fill:#FFFFFF;" d="M467.267,182.164c-4.466,0-8.084-3.62-8.084-8.084c0-19.045-4.607-37.349-13.693-54.402
		c-2.099-3.94-0.608-8.837,3.334-10.936c3.941-2.101,8.837-0.607,10.936,3.334c10.346,19.418,15.591,40.28,15.591,62.005
		C475.352,178.545,471.733,182.164,467.267,182.164z"/>
	<path style="fill:#FFFFFF;" d="M426.303,89.577c-1.996,0-3.998-0.735-5.561-2.217c-26.428-25.057-61.966-38.855-100.069-38.855
		c-4.466,0-8.084-3.62-8.084-8.084s3.618-8.084,8.084-8.084c42.259,0,81.749,15.374,111.192,43.289
		c3.24,3.072,3.377,8.189,0.304,11.429C430.581,88.731,428.444,89.577,426.303,89.577z"/>
	<path style="fill:#FFFFFF;" d="M312.051,155.217c-17.534,0-31.798,14.265-31.798,31.798s14.264,31.798,31.798,31.798
		s31.798-14.265,31.798-31.798S329.585,155.217,312.051,155.217z"/>
	<path style="fill:#FFFFFF;" d="M398.282,155.217c-17.534,0-31.798,14.265-31.798,31.798s14.264,31.798,31.798,31.798
		c17.534,0,31.798-14.265,31.798-31.798S415.816,155.217,398.282,155.217z"/>
	<path style="fill:#FFFFFF;" d="M225.819,155.217c-17.533,0-31.798,14.265-31.798,31.798s14.265,31.798,31.798,31.798
		s31.798-14.265,31.798-31.798S243.352,155.217,225.819,155.217z"/>
</g>
<g>
</g>
<g>
</g>
<g>
</g>
<g>
</g>
<g>
</g>
<g>
</g>
<g>
</g>
<g>
</g>
<g>
</g>
<g>
</g>
<g>
</g>
<g>
</g>
<g>
</g>
<g>
</g>
<g>
</g>
</svg>
