<?xml version="1.0" encoding="iso-8859-1"?>
<!-- Generator: Adobe Illustrator 19.0.0, SVG Export Plug-In . SVG Version: 6.00 Build 0)  -->
<svg version="1.1" id="Layer_1" xmlns="http://www.w3.org/2000/svg" xmlns:xlink="http://www.w3.org/1999/xlink" x="0px" y="0px"
	 viewBox="0 0 512 512" style="enable-background:new 0 0 512 512;" xml:space="preserve">
<path style="fill:#687F82;" d="M132.777,512c-4.161,0-7.779-3.084-8.337-7.321c-0.607-4.611,2.638-8.841,7.248-9.448
	c10.856-1.429,21.765-3.355,32.425-5.72c4.539-1.007,9.038,1.856,10.045,6.396c1.008,4.539-1.856,9.037-6.396,10.045
	c-11.137,2.472-22.534,4.483-33.875,5.976C133.514,511.976,133.143,512,132.777,512z M198.446,497.422
	c-3.576,0-6.891-2.294-8.026-5.884c-1.401-4.435,1.055-9.166,5.491-10.567c10.418-3.295,20.823-7.094,30.925-11.296
	c4.293-1.785,9.222,0.247,11.008,4.541c1.786,4.294-0.248,9.222-4.541,11.008c-10.555,4.39-21.428,8.361-32.315,11.803
	C200.143,497.295,199.287,497.422,198.446,497.422z M260.56,471.598c-3.034,0-5.965-1.645-7.468-4.52
	c-2.154-4.12-0.56-9.208,3.56-11.364c9.687-5.065,19.271-10.621,28.487-16.515c3.918-2.505,9.125-1.361,11.63,2.556
	c2.505,3.918,1.361,9.124-2.556,11.63c-9.626,6.157-19.639,11.961-29.756,17.252C263.21,471.289,261.874,471.598,260.56,471.598z
	 M317.225,435.359c-2.525,0-5.021-1.129-6.679-3.285c-2.836-3.685-2.148-8.972,1.537-11.809
	c8.664-6.668,17.144-13.802,25.204-21.201c3.427-3.145,8.753-2.918,11.899,0.509c3.145,3.425,2.917,8.752-0.509,11.897
	c-8.418,7.728-17.275,15.177-26.322,22.141C320.823,434.79,319.017,435.359,317.225,435.359z M366.77,389.867
	c-2.032,0-4.069-0.731-5.685-2.211c-3.43-3.141-3.663-8.467-0.522-11.897c7.385-8.063,14.509-16.553,21.17-25.231
	c2.83-3.688,8.117-4.383,11.808-1.552c3.688,2.831,4.383,8.117,1.552,11.806c-6.957,9.064-14.397,17.93-22.111,26.351
	C371.322,388.947,369.049,389.867,366.77,389.867z M407.728,336.505c-1.549,0-3.117-0.427-4.519-1.321
	c-3.921-2.5-5.074-7.706-2.573-11.627c5.887-9.233,11.434-18.827,16.481-28.514c2.151-4.124,7.237-5.725,11.358-3.575
	c4.125,2.149,5.726,7.235,3.577,11.358c-5.275,10.119-11.067,20.14-17.216,29.784C413.229,335.13,410.508,336.505,407.728,336.505z
	 M438.819,276.849c-1.074,0-2.166-0.207-3.22-0.643c-4.296-1.78-6.337-6.706-4.556-11.003c4.187-10.103,7.975-20.514,11.255-30.942
	c1.396-4.437,6.12-6.9,10.56-5.504c4.436,1.396,6.9,6.124,5.504,10.559c-3.43,10.897-7.387,21.775-11.763,32.334
	C445.258,274.892,442.122,276.849,438.819,276.849z M459.027,212.686c-0.601,0-1.21-0.065-1.822-0.2
	c-4.541-1.003-7.411-5.496-6.408-10.037c2.353-10.66,4.263-21.571,5.679-32.432c0.602-4.611,4.827-7.86,9.439-7.261
	c4.611,0.602,7.862,4.827,7.262,9.439c-1.479,11.345-3.476,22.745-5.932,33.883C466.375,210.007,462.891,212.686,459.027,212.686z"
	/>
<path style="fill:#365558;" d="M87.593,510.835c-4.651,0-8.42-3.77-8.42-8.42v-53.89c0-4.65,3.769-8.42,8.42-8.42
	s8.42,3.77,8.42,8.42v53.89C96.013,507.065,92.244,510.835,87.593,510.835z"/>
<path style="fill:#CDD4D5;" d="M105.556,157.18H69.63c-4.651,0-8.42,3.77-8.42,8.42v282.924c0,4.65,3.769,8.42,8.42,8.42h35.927
	c4.651,0,8.42-3.77,8.42-8.42V165.6C113.977,160.95,110.208,157.18,105.556,157.18z"/>
<path style="fill:#687F82;" d="M105.556,0H69.63c-4.651,0-8.42,3.77-8.42,8.42v80.835c0,4.65,3.769,8.42,8.42,8.42h35.927
	c4.651,0,8.42-3.77,8.42-8.42V8.42C113.977,3.77,110.208,0,105.556,0z"/>
<path style="fill:#9BAAAB;" d="M69.63,157.18c-4.651,0-8.42,3.77-8.42,8.42v282.924c0,4.65,3.769,8.42,8.42,8.42h17.963V157.18
	H69.63z"/>
<path style="fill:#365558;" d="M69.63,0c-4.651,0-8.42,3.77-8.42,8.42v80.835c0,4.65,3.769,8.42,8.42,8.42h17.963V0H69.63z"/>
<path style="fill:#FF8C29;" d="M487.459,118.177l-53.89-35.927c-1.383-0.922-3.009-1.415-4.671-1.415H119.029
	c-4.651,0-8.42,3.77-8.42,8.42v71.854c0,4.65,3.769,8.42,8.42,8.42h309.869c1.662,0,3.288-0.493,4.671-1.415l53.89-35.927
	c2.343-1.562,3.75-4.19,3.75-7.006C491.208,122.367,489.802,119.737,487.459,118.177z"/>
<path style="fill:#FD6A33;" d="M110.609,161.109c0,4.65,3.769,8.42,8.42,8.42h309.869c1.662,0,3.288-0.493,4.671-1.415l53.89-35.927
	c2.343-1.562,3.75-4.19,3.75-7.006h-380.6L110.609,161.109L110.609,161.109z"/>
<path style="fill:#F0353D;" d="M428.898,133.603H119.029c-4.651,0-8.42-3.77-8.42-8.42s3.769-8.42,8.42-8.42h309.869
	c4.651,0,8.42,3.77,8.42,8.42S433.549,133.603,428.898,133.603z"/>
<path style="fill:#FFD1A9;" d="M487.459,118.177l-53.89-35.927c-1.409-0.94-3.037-1.397-4.671-1.397v88.676
	c1.632,0,3.261-0.475,4.671-1.415l53.89-35.927c2.343-1.562,3.75-4.19,3.75-7.006C491.208,122.367,489.802,119.737,487.459,118.177z
	"/>
<path style="fill:#365558;" d="M487.459,118.177l-18.143-12.096v38.203l18.143-12.096c2.343-1.562,3.75-4.19,3.75-7.006
	S489.802,119.737,487.459,118.177z"/>
<path style="fill:#4ACFD9;" d="M87.593,58.381c-36.835,0-66.801,29.966-66.801,66.801s29.966,66.801,66.801,66.801
	s66.801-29.966,66.801-66.801S124.428,58.381,87.593,58.381z"/>
<path style="fill:#0295AA;" d="M87.593,58.381c-36.835,0-66.801,29.966-66.801,66.801s29.966,66.801,66.801,66.801V58.381z"/>
<path style="fill:#FFFFFF;" d="M87.593,160.548c-4.651,0-8.42-3.77-8.42-8.42c0-4.65,3.769-8.42,8.42-8.42
	c8.976,0,16.279-7.303,16.279-16.279s-7.303-16.279-16.279-16.279c-4.651,0-8.42-3.77-8.42-8.42s3.769-8.42,8.42-8.42
	c18.263,0,33.12,14.858,33.12,33.12S105.856,160.548,87.593,160.548z"/>
<g>
</g>
<g>
</g>
<g>
</g>
<g>
</g>
<g>
</g>
<g>
</g>
<g>
</g>
<g>
</g>
<g>
</g>
<g>
</g>
<g>
</g>
<g>
</g>
<g>
</g>
<g>
</g>
<g>
</g>
</svg>
