<?xml version="1.0" encoding="iso-8859-1"?>
<!-- Generator: Adobe Illustrator 19.0.0, SVG Export Plug-In . SVG Version: 6.00 Build 0)  -->
<svg version="1.1" id="Layer_1" xmlns="http://www.w3.org/2000/svg" xmlns:xlink="http://www.w3.org/1999/xlink" x="0px" y="0px"
	 viewBox="0 0 512 512" style="enable-background:new 0 0 512 512;" xml:space="preserve">
<path style="fill:#E6EAEA;" d="M256,66.271H72.15c-4.428,0-8.017,3.589-8.017,8.017v179.574H256V66.271z"/>
<g>
	<path style="fill:#CDD4D5;" d="M447.866,253.862V74.288c0-4.427-3.588-8.017-8.017-8.017H256v187.591H447.866z"/>
	<path style="fill:#CDD4D5;" d="M64.134,253.862v183.85c0,4.427,3.588,8.017,8.017,8.017H256V253.862H64.134z"/>
</g>
<path style="fill:#E6EAEA;" d="M256,253.862v191.866h183.85c4.428,0,8.017-3.589,8.017-8.017v-183.85H256z"/>
<g>
	<path style="fill:#0295AA;" d="M256,98.338c4.428,0,8.017-3.589,8.017-8.017V74.288c0-4.427-3.588-8.017-8.017-8.017
		c-4.428,0-8.017,3.589-8.017,8.017v16.033C247.983,94.749,251.572,98.338,256,98.338z"/>
	<path style="fill:#0295AA;" d="M256,293.168c-4.428,0-8.017,3.589-8.017,8.017v30.124c0,4.427,3.588,8.017,8.017,8.017
		c4.428,0,8.017-3.589,8.017-8.017v-30.124C264.017,296.757,260.428,293.168,256,293.168z"/>
	<path style="fill:#0295AA;" d="M256,353.415c-4.428,0-8.017,3.589-8.017,8.017v30.124c0,4.427,3.588,8.017,8.017,8.017
		c4.428,0,8.017-3.589,8.017-8.017v-30.124C264.017,357.004,260.428,353.415,256,353.415z"/>
	<path style="fill:#0295AA;" d="M256,218.831c4.428,0,8.017-3.589,8.017-8.017v-30.124c0-4.427-3.588-8.017-8.017-8.017
		c-4.428,0-8.017,3.589-8.017,8.017v30.124C247.983,215.242,251.572,218.831,256,218.831z"/>
	<path style="fill:#0295AA;" d="M256,158.584c4.428,0,8.017-3.589,8.017-8.017v-30.124c0-4.427-3.588-8.017-8.017-8.017
		c-4.428,0-8.017,3.589-8.017,8.017v30.124C247.983,154.995,251.572,158.584,256,158.584z"/>
	<path style="fill:#0295AA;" d="M256,413.662c-4.428,0-8.017,3.589-8.017,8.017v16.033c0,4.427,3.588,8.017,8.017,8.017
		c4.428,0,8.017-3.589,8.017-8.017v-16.033C264.017,417.251,260.428,413.662,256,413.662z"/>
	<path style="fill:#0295AA;" d="M90.322,247.983H74.288c-4.428,0-8.017,3.589-8.017,8.017c0,4.427,3.588,8.017,8.017,8.017h16.033
		c4.428,0,8.017-3.589,8.017-8.017C98.338,251.573,94.75,247.983,90.322,247.983z"/>
	<path style="fill:#0295AA;" d="M150.568,247.983h-30.124c-4.428,0-8.017,3.589-8.017,8.017c0,4.427,3.588,8.017,8.017,8.017h30.124
		c4.428,0,8.017-3.589,8.017-8.017C158.584,251.573,154.996,247.983,150.568,247.983z"/>
	<path style="fill:#0295AA;" d="M331.308,247.983h-30.124c-4.428,0-8.017,3.589-8.017,8.017c0,4.427,3.588,8.017,8.017,8.017h30.124
		c4.428,0,8.017-3.589,8.017-8.017C339.325,251.573,335.736,247.983,331.308,247.983z"/>
	<path style="fill:#0295AA;" d="M391.555,247.983H361.43c-4.428,0-8.017,3.589-8.017,8.017c0,4.427,3.588,8.017,8.017,8.017h30.125
		c4.428,0,8.017-3.589,8.017-8.017C399.572,251.573,395.983,247.983,391.555,247.983z"/>
	<path style="fill:#0295AA;" d="M271.062,247.983h-7.045v-7.045c0-4.427-3.588-8.017-8.017-8.017c-4.428,0-8.017,3.589-8.017,8.017
		v7.045h-7.045c-4.428,0-8.017,3.589-8.017,8.017c0,4.427,3.588,8.017,8.017,8.017h7.045v7.045c0,4.427,3.588,8.017,8.017,8.017
		c4.428,0,8.017-3.589,8.017-8.017v-7.045h7.045c4.428,0,8.017-3.589,8.017-8.017C279.078,251.573,275.489,247.983,271.062,247.983z
		"/>
	<path style="fill:#0295AA;" d="M210.815,247.983H180.69c-4.428,0-8.017,3.589-8.017,8.017c0,4.427,3.588,8.017,8.017,8.017h30.125
		c4.428,0,8.017-3.589,8.017-8.017C218.831,251.573,215.243,247.983,210.815,247.983z"/>
	<path style="fill:#0295AA;" d="M437.712,247.983h-16.033c-4.428,0-8.017,3.589-8.017,8.017c0,4.427,3.588,8.017,8.017,8.017h16.033
		c4.428,0,8.017-3.589,8.017-8.017C445.729,251.573,442.14,247.983,437.712,247.983z"/>
</g>
<g>
	<path style="fill:#F0353D;" d="M439.85,56.651c-4.428,0-8.017-3.589-8.017-8.017V14.43c0-4.427,3.588-8.017,8.017-8.017
		s8.017,3.589,8.017,8.017v34.205C447.866,53.062,444.278,56.651,439.85,56.651z"/>
	<path style="fill:#F0353D;" d="M503.983,82.305h-34.205c-4.428,0-8.017-3.589-8.017-8.017s3.588-8.017,8.017-8.017h34.205
		c4.428,0,8.017,3.589,8.017,8.017S508.412,82.305,503.983,82.305z"/>
	<path style="fill:#F0353D;" d="M72.15,56.651c-4.428,0-8.017-3.589-8.017-8.017V14.43c0-4.427,3.588-8.017,8.017-8.017
		s8.017,3.589,8.017,8.017v34.205C80.167,53.062,76.579,56.651,72.15,56.651z"/>
	<path style="fill:#F0353D;" d="M42.221,82.305H8.017C3.588,82.305,0,78.715,0,74.288s3.588-8.017,8.017-8.017h34.205
		c4.428,0,8.017,3.589,8.017,8.017S46.65,82.305,42.221,82.305z"/>
	<path style="fill:#F0353D;" d="M439.85,505.587c-4.428,0-8.017-3.589-8.017-8.017v-34.205c0-4.427,3.588-8.017,8.017-8.017
		s8.017,3.589,8.017,8.017v34.205C447.866,501.997,444.278,505.587,439.85,505.587z"/>
	<path style="fill:#F0353D;" d="M503.983,445.729h-34.205c-4.428,0-8.017-3.589-8.017-8.017c0-4.427,3.588-8.017,8.017-8.017h34.205
		c4.428,0,8.017,3.589,8.017,8.017C512,442.139,508.412,445.729,503.983,445.729z"/>
	<path style="fill:#F0353D;" d="M72.15,505.587c-4.428,0-8.017-3.589-8.017-8.017v-34.205c0-4.427,3.588-8.017,8.017-8.017
		s8.017,3.589,8.017,8.017v34.205C80.167,501.997,76.579,505.587,72.15,505.587z"/>
	<path style="fill:#F0353D;" d="M42.221,445.729H8.017c-4.428,0-8.017-3.589-8.017-8.017c0-4.427,3.588-8.017,8.017-8.017h34.205
		c4.428,0,8.017,3.589,8.017,8.017C50.238,442.139,46.65,445.729,42.221,445.729z"/>
</g>
<g>
</g>
<g>
</g>
<g>
</g>
<g>
</g>
<g>
</g>
<g>
</g>
<g>
</g>
<g>
</g>
<g>
</g>
<g>
</g>
<g>
</g>
<g>
</g>
<g>
</g>
<g>
</g>
<g>
</g>
</svg>
