<?xml version="1.0" encoding="iso-8859-1"?>
<!-- Generator: Adobe Illustrator 19.0.0, SVG Export Plug-In . SVG Version: 6.00 Build 0)  -->
<svg version="1.1" id="Layer_1" xmlns="http://www.w3.org/2000/svg" xmlns:xlink="http://www.w3.org/1999/xlink" x="0px" y="0px"
	 viewBox="0 0 512 512" style="enable-background:new 0 0 512 512;" xml:space="preserve">
<path style="fill:#4ACFD9;" d="M256,0C154.542,0,72,82.542,72,184v110.933c0,14.41,11.724,26.133,26.133,26.133
	s26.133-11.724,26.133-26.133V184c0-72.638,59.095-131.733,131.733-131.733S387.733,111.362,387.733,184v110.933
	c0,14.41,11.723,26.133,26.133,26.133S440,309.343,440,294.933V184C440,82.542,357.458,0,256,0z"/>
<path style="fill:#0295AA;" d="M72,184v110.933c0,14.41,11.724,26.133,26.133,26.133s26.133-11.724,26.133-26.133V184
	c0-72.638,59.095-131.733,131.733-131.733V0C154.542,0,72,82.542,72,184z"/>
<path style="fill:#FF8C29;" d="M98.133,295.467c-53.817,0-97.6,43.783-97.6,97.6s43.783,97.6,97.6,97.6c4.418,0,8-3.582,8-8v-179.2
	C106.133,299.049,102.551,295.467,98.133,295.467z"/>
<path style="fill:#CDD4D5;" d="M136.533,274.133H55.467c-4.418,0-8,3.582-8,8V504c0,4.418,3.582,8,8,8h81.067c4.418,0,8-3.582,8-8
	V282.133C144.533,277.715,140.951,274.133,136.533,274.133z"/>
<path style="fill:#FF8C29;" d="M413.867,295.467c-4.419,0-8,3.582-8,8v179.2c0,4.418,3.581,8,8,8c53.817,0,97.6-43.783,97.6-97.6
	S467.683,295.467,413.867,295.467z"/>
<g>
	<path style="fill:#FFFFFF;" d="M481.614,409.601c-0.332,0-0.667-0.021-1.004-0.063c-4.384-0.549-7.492-4.548-6.945-8.932
		c0.311-2.482,0.469-5.019,0.469-7.539c0-6.437-1.012-12.772-3.01-18.828c-1.383-4.196,0.896-8.719,5.091-10.103
		c4.201-1.385,8.72,0.896,10.105,5.091c2.531,7.676,3.814,15.696,3.814,23.839c0,3.183-0.198,6.388-0.592,9.527
		C489.035,406.641,485.588,409.601,481.614,409.601z"/>
	<path style="fill:#FFFFFF;" d="M30.387,409.601c-3.975,0-7.421-2.959-7.929-7.006c-0.394-3.138-0.593-6.343-0.593-9.529
		c0-8.141,1.283-16.161,3.815-23.839c1.383-4.196,5.907-6.477,10.102-5.092c4.195,1.383,6.476,5.907,5.092,10.102
		c-1.998,6.058-3.01,12.393-3.01,18.828c0,2.522,0.158,5.058,0.468,7.538c0.549,4.384-2.559,8.383-6.943,8.933
		C31.055,409.58,30.719,409.601,30.387,409.601z"/>
</g>
<path style="fill:#CDD4D5;" d="M456.533,274.133h-81.067c-4.419,0-8,3.582-8,8V504c0,4.418,3.581,8,8,8h81.067c4.419,0,8-3.582,8-8
	V282.133C464.533,277.715,460.953,274.133,456.533,274.133z"/>
<g>
	<path style="fill:#9BAAAB;" d="M55.467,274.133c-4.418,0-8,3.582-8,8V504c0,4.418,3.582,8,8,8h17.067V274.133H55.467z"/>
	<path style="fill:#9BAAAB;" d="M136.533,274.133h-12.8V512h12.8c4.418,0,8-3.582,8-8V282.133
		C144.533,277.715,140.951,274.133,136.533,274.133z"/>
	<path style="fill:#9BAAAB;" d="M375.467,274.133c-4.419,0-8,3.582-8,8V504c0,4.418,3.581,8,8,8h12.8V274.133H375.467z"/>
	<path style="fill:#9BAAAB;" d="M456.533,274.133h-17.067V512h17.067c4.419,0,8-3.582,8-8V282.133
		C464.533,277.715,460.953,274.133,456.533,274.133z"/>
</g>
<g>
</g>
<g>
</g>
<g>
</g>
<g>
</g>
<g>
</g>
<g>
</g>
<g>
</g>
<g>
</g>
<g>
</g>
<g>
</g>
<g>
</g>
<g>
</g>
<g>
</g>
<g>
</g>
<g>
</g>
</svg>
