<?xml version="1.0" encoding="iso-8859-1"?>
<!-- Generator: Adobe Illustrator 19.0.0, SVG Export Plug-In . SVG Version: 6.00 Build 0)  -->
<svg version="1.1" id="Layer_1" xmlns="http://www.w3.org/2000/svg" xmlns:xlink="http://www.w3.org/1999/xlink" x="0px" y="0px"
	 viewBox="0 0 512 512" style="enable-background:new 0 0 512 512;" xml:space="preserve">
<path style="fill:#E6EAEA;" d="M486.881,29.929H25.119c-4.428,0-8.017,3.588-8.017,8.017v393.353c0,4.428,3.588,8.017,8.017,8.017
	h461.762c4.428,0,8.017-3.588,8.017-8.017V37.946C494.898,33.517,491.309,29.929,486.881,29.929z"/>
<path style="fill:#CDD4D5;" d="M25.119,29.929c-4.428,0-8.017,3.588-8.017,8.017v393.353c0,4.428,3.588,8.017,8.017,8.017h225.697
	V29.929H25.119z"/>
<path style="fill:#9BAAAB;" d="M486.881,29.929H25.119c-4.427,0-8.017,3.589-8.017,8.017v42.221h477.795V37.946
	C494.898,33.518,491.308,29.929,486.881,29.929z"/>
<path style="fill:#687F82;" d="M25.119,29.929c-4.427,0-8.017,3.589-8.017,8.017v42.221h233.714V29.929H25.119z"/>
<path style="fill:#FD6A33;" d="M503.983,397.628H8.017c-4.428,0-8.017,3.588-8.017,8.017v36.342
	c0,22.103,17.981,40.083,40.084,40.083h431.833c22.103,0,40.083-17.981,40.083-40.083v-36.342
	C512,401.217,508.412,397.628,503.983,397.628z"/>
<path style="fill:#FF8C29;" d="M503.983,397.628H250.816v84.443h221.101c22.103,0,40.083-17.981,40.083-40.083v-36.342
	C512,401.217,508.412,397.628,503.983,397.628z"/>
<path style="fill:#FD6A33;" d="M306.772,397.628H205.228v42.221c0,4.427,3.589,8.017,8.017,8.017h85.511
	c4.427,0,8.017-3.589,8.017-8.017V397.628z"/>
<path style="fill:#F0353D;" d="M205.228,397.628v42.221c0,4.427,3.589,8.017,8.017,8.017h37.572v-50.238H205.228z"/>
<g>
	<path style="fill:#FFFFFF;" d="M444.125,456.418h-94.063c-4.428,0-8.017-3.588-8.017-8.017s3.588-8.017,8.017-8.017h94.063
		c4.428,0,8.017,3.588,8.017,8.017S448.554,456.418,444.125,456.418z"/>
	<path style="fill:#FFFFFF;" d="M161.937,456.418H67.875c-4.428,0-8.017-3.588-8.017-8.017s3.588-8.017,8.017-8.017h94.063
		c4.428,0,8.017,3.588,8.017,8.017S166.366,456.418,161.937,456.418z"/>
</g>
<g>
	<path style="fill:#4ACFD9;" d="M381.994,268.633l-33.045-8.854c-2.054-0.555-4.245-0.264-6.085,0.802
		c-1.842,1.064-3.184,2.817-3.734,4.872c-3.887,14.536-11.593,27.87-22.286,38.564c-3.131,3.132-3.131,8.207,0,11.338l24.186,24.186
		c1.566,1.565,3.618,2.347,5.669,2.347c2.051,0,4.103-0.782,5.669-2.347c16.934-16.936,29.139-38.061,35.296-61.094
		C388.806,274.171,386.268,269.779,381.994,268.633z"/>
	<path style="fill:#4ACFD9;" d="M130.006,217.713l33.045,8.854c0.683,0.184,1.38,0.274,2.075,0.274c1.396,0,2.781-0.365,4.01-1.075
		c1.843-1.065,3.184-2.817,3.735-4.872c3.884-14.535,11.59-27.869,22.285-38.564c3.131-3.132,3.131-8.207,0-11.338l-24.186-24.186
		c-3.132-3.13-8.207-3.13-11.338,0c-16.934,16.936-29.139,38.06-35.296,61.094C123.194,212.175,125.732,216.567,130.006,217.713z"/>
	<path style="fill:#4ACFD9;" d="M374.043,175.015c-2.217-3.832-7.117-5.144-10.949-2.93l-29.628,17.106
		c-1.843,1.064-3.185,2.815-3.736,4.87c-0.551,2.055-0.261,4.245,0.804,6.085c7.53,13.027,11.511,27.905,11.511,43.027
		c0,4.428,3.588,8.017,8.017,8.017h34.205c4.428,0,8.017-3.588,8.017-8.017C392.284,219.225,385.976,195.656,374.043,175.015z"/>
</g>
<path style="fill:#9BAAAB;" d="M182.269,292.286c0.55-2.056,0.261-4.245-0.804-6.085c-7.53-13.027-11.511-27.905-11.511-43.027
	c0-4.428-3.588-8.017-8.017-8.017h-34.205c-4.428,0-8.017,3.588-8.017,8.017c0,23.949,6.308,47.518,18.241,68.158
	c1.487,2.57,4.178,4.005,6.948,4.005c1.361,0,2.74-0.346,4.001-1.075l29.628-17.105C180.376,296.092,181.719,294.34,182.269,292.286
	z"/>
<path style="fill:#4ACFD9;" d="M278.28,160.045c14.535,3.884,27.869,11.59,38.564,22.285c1.566,1.565,3.618,2.347,5.669,2.347
	s4.103-0.782,5.669-2.347l24.186-24.186c3.131-3.132,3.131-8.207,0-11.338c-16.933-16.934-38.06-29.14-61.094-35.297
	c-4.27-1.138-8.668,1.396-9.814,5.67l-8.854,33.045c-0.552,2.055-0.262,4.245,0.802,6.085
	C274.473,158.152,276.225,159.495,278.28,160.045z"/>
<path style="fill:#9BAAAB;" d="M233.72,326.303c-14.536-3.887-27.87-11.593-38.564-22.286c-3.132-3.13-8.207-3.13-11.338,0
	l-24.186,24.186c-3.131,3.132-3.131,8.207,0,11.339c16.936,16.934,38.06,29.139,61.094,35.296c0.693,0.185,1.39,0.274,2.075,0.274
	c3.539,0,6.779-2.362,7.738-5.944l8.854-33.045c0.552-2.055,0.262-4.245-0.802-6.085
	C237.528,328.195,235.775,326.852,233.72,326.303z"/>
<path style="fill:#4ACFD9;" d="M202.018,165.706c1.064,1.843,2.815,3.185,4.87,3.736c0.683,0.183,1.379,0.273,2.073,0.273
	c1.397,0,2.781-0.366,4.013-1.076c13.027-7.53,27.905-11.511,43.027-11.511c4.428,0,8.017-3.588,8.017-8.017v-34.205
	c0-4.428-3.588-8.017-8.017-8.017c-23.949,0-47.518,6.308-68.158,18.241c-3.831,2.215-5.144,7.116-2.93,10.949L202.018,165.706z"/>
<path style="fill:#9BAAAB;" d="M309.982,320.64c-1.064-1.843-2.815-3.185-4.87-3.736c-2.057-0.552-4.244-0.261-6.085,0.804
	c-13.027,7.53-27.905,11.511-43.027,11.511c-4.428,0-8.017,3.588-8.017,8.017v34.205c0,4.428,3.588,8.017,8.017,8.017
	c23.949,0,47.518-6.308,68.158-18.241c3.831-2.215,5.144-7.116,2.93-10.949L309.982,320.64z"/>
<g>
	<path style="fill:#365558;" d="M290.205,311.048c-13.851,0-25.119-11.268-25.119-25.119c0-13.851,11.268-25.119,25.119-25.119
		c13.851,0,25.119,11.268,25.119,25.119C315.324,299.78,304.055,311.048,290.205,311.048z M290.205,276.843
		c-5.009,0-9.086,4.077-9.086,9.086c0,5.009,4.077,9.086,9.086,9.086c5.009,0,9.086-4.077,9.086-9.086
		C299.29,280.92,295.213,276.843,290.205,276.843z"/>
	<path style="fill:#365558;" d="M217.52,238.363c-13.851,0-25.119-11.268-25.119-25.119c0-13.851,11.268-25.119,25.119-25.119
		c13.851,0,25.119,11.268,25.119,25.119C242.639,227.095,231.371,238.363,217.52,238.363z M217.52,204.159
		c-5.009,0-9.086,4.077-9.086,9.086s4.077,9.086,9.086,9.086s9.086-4.077,9.086-9.086S222.529,204.159,217.52,204.159z"/>
	<path style="fill:#365558;" d="M213.244,293.946c-2.051,0-4.103-0.782-5.669-2.347c-3.131-3.132-3.131-8.207,0-11.338
		l85.511-85.511c3.132-3.13,8.207-3.13,11.338,0c3.131,3.132,3.131,8.207,0,11.338l-85.511,85.511
		C217.348,293.163,215.295,293.946,213.244,293.946z"/>
</g>
<g>
</g>
<g>
</g>
<g>
</g>
<g>
</g>
<g>
</g>
<g>
</g>
<g>
</g>
<g>
</g>
<g>
</g>
<g>
</g>
<g>
</g>
<g>
</g>
<g>
</g>
<g>
</g>
<g>
</g>
</svg>
