<?xml version="1.0" encoding="iso-8859-1"?>
<!-- Generator: Adobe Illustrator 19.0.0, SVG Export Plug-In . SVG Version: 6.00 Build 0)  -->
<svg version="1.1" id="Layer_1" xmlns="http://www.w3.org/2000/svg" xmlns:xlink="http://www.w3.org/1999/xlink" x="0px" y="0px"
	 viewBox="0 0 512.001 512.001" style="enable-background:new 0 0 512.001 512.001;" xml:space="preserve">
<path style="fill:#E6EAEA;" d="M264.552,0c-42.141,0-76.426,34.285-76.426,76.426s34.285,76.426,76.426,76.426
	s76.426-34.285,76.426-76.426S306.693,0,264.552,0z"/>
<path style="fill:#CDD4D5;" d="M188.126,76.426c0,42.141,34.285,76.426,76.426,76.426V0C222.411,0,188.126,34.285,188.126,76.426z"
	/>
<path style="fill:#4ACFD9;" d="M290.205,127.198c4.427,0,8.017-3.589,8.017-8.017V84.977c0-4.427-3.589-8.017-8.017-8.017h-17.637
	V50.238h17.301c4.39,0,8.218-3.383,8.349-7.771c0.136-4.54-3.504-8.263-8.013-8.263h-17.637V28.86c0-4.427-3.589-8.017-8.017-8.017
	l0,0c-4.427,0-8.017,3.589-8.017,8.017v5.344h-17.637c-4.427,0-8.017,3.589-8.017,8.017v42.756c0,4.427,3.589,8.017,8.017,8.017
	h17.637v18.171h-17.301c-4.39,0-8.218,3.383-8.349,7.771c-0.136,4.54,3.504,8.263,8.013,8.263h17.637v5.344
	c0,4.427,3.589,8.017,8.017,8.017l0,0c4.427,0,8.017-3.589,8.017-8.017v-5.344H290.205z M272.568,92.994h9.62v18.171h-9.62V92.994z
	 M256.535,76.96h-9.62V50.238h9.62V76.96z"/>
<path style="fill:#0295AA;" d="M256.535,28.86v5.344h-17.637c-4.427,0-8.017,3.589-8.017,8.017v42.756
	c0,4.427,3.589,8.017,8.017,8.017h17.637v18.171h-17.301c-4.39,0-8.218,3.383-8.349,7.771c-0.136,4.54,3.504,8.263,8.013,8.263
	h17.637v5.344c0,4.427,3.589,8.017,8.017,8.017V20.843C260.124,20.843,256.535,24.433,256.535,28.86z M256.535,76.96h-9.62V50.238
	h9.62V76.96z"/>
<g>
	<path style="fill:#FD6A33;" d="M219.301,438.873c-1.523-1.756-3.733-2.764-6.056-2.764h-68.409c-2.324,0-4.533,1.008-6.056,2.764
		c-1.522,1.756-2.208,4.085-1.88,6.387l8.551,59.858c0.564,3.95,3.946,6.884,7.937,6.884h51.307c3.989,0,7.372-2.933,7.937-6.884
		l8.551-59.858C221.509,442.958,220.823,440.628,219.301,438.873z"/>
	<path style="fill:#FD6A33;" d="M373.222,438.873c-1.523-1.756-3.733-2.764-6.056-2.764h-68.409c-2.324,0-4.533,1.008-6.056,2.764
		c-1.522,1.756-2.208,4.085-1.88,6.387l8.551,59.858c0.564,3.95,3.946,6.884,7.937,6.884h51.307c3.989,0,7.372-2.933,7.937-6.884
		l8.551-59.858C375.43,442.958,374.744,440.628,373.222,438.873z"/>
	<path style="fill:#FD6A33;" d="M115.813,275.536c-1.798-1.524-4.174-2.181-6.5-1.791L6.699,290.847
		c-3.866,0.646-6.699,3.99-6.699,7.909v68.409c0,3.919,2.833,7.263,6.699,7.908l102.614,17.102c0.439,0.073,0.88,0.109,1.318,0.109
		c1.883,0,3.723-0.664,5.182-1.899c1.798-1.523,2.835-3.76,2.835-6.117V281.653C118.648,279.297,117.611,277.059,115.813,275.536z"
		/>
	<path style="fill:#FD6A33;" d="M210.685,165.163l-68.409-76.96c-2.21-2.488-5.729-3.35-8.841-2.168
		c-3.11,1.183-5.167,4.164-5.167,7.493v76.96c0,4.428,3.589,8.017,8.017,8.017h68.409c3.158,0,6.02-1.852,7.313-4.733
		C213.3,170.893,212.783,167.522,210.685,165.163z"/>
</g>
<path style="fill:#F0353D;" d="M452.677,289.67c-4.427,0-8.017-3.588-8.017-8.017s3.589-8.017,8.017-8.017
	c23.869,0,43.29-19.42,43.29-43.29s-19.421-43.29-43.29-43.29c-4.427,0-8.017-3.588-8.017-8.017s3.589-8.017,8.017-8.017
	c32.711,0,59.324,26.613,59.324,59.324S485.388,289.67,452.677,289.67z"/>
<path style="fill:#FF8C29;" d="M345.788,162.472H149.111c-63.36,0-114.906,51.547-114.906,114.906v76.96
	c0,63.359,51.546,114.906,114.906,114.906h196.676c63.36,0,114.906-51.547,114.906-114.906v-76.96
	C460.694,214.019,409.147,162.472,345.788,162.472z"/>
<g>
	<path style="fill:#FFFFFF;" d="M343.65,435.04c-4.427,0-8.017-3.588-8.017-8.017s3.589-8.017,8.017-8.017
		c25.618,0,49.311-14.988,60.36-38.187c1.903-3.997,6.687-5.693,10.685-3.79c3.998,1.904,5.694,6.688,3.79,10.686
		C404.792,416.463,375.417,435.04,343.65,435.04z"/>
	<path style="fill:#FFFFFF;" d="M418.472,332.427c-4.427,0-8.017-3.588-8.017-8.017v-51.308c0-4.428,3.589-8.017,8.017-8.017
		c4.427,0,8.017,3.588,8.017,8.017v51.308C426.489,328.839,422.9,332.427,418.472,332.427z"/>
</g>
<circle style="fill:#FFD1A9;" cx="110.631" cy="281.653" r="25.653"/>
<g>
	<path style="fill:#F0353D;" d="M110.631,315.324c-18.566,0-33.67-15.105-33.67-33.67c0-18.566,15.105-33.67,33.67-33.67
		s33.67,15.105,33.67,33.67C144.301,300.219,129.197,315.324,110.631,315.324z M110.631,264.017
		c-9.725,0-17.637,7.912-17.637,17.637s7.912,17.637,17.637,17.637s17.637-7.912,17.637-17.637S120.356,264.017,110.631,264.017z"/>
	<path style="fill:#F0353D;" d="M332.961,213.779h-145.37c-4.427,0-8.017,3.588-8.017,8.017v42.756c0,4.428,3.589,8.017,8.017,8.017
		h145.37c4.427,0,8.017-3.588,8.017-8.017v-42.756C340.978,217.367,337.388,213.779,332.961,213.779z"/>
</g>
<path style="fill:#FFD1A9;" d="M179.575,243.173v21.378c0,4.428,3.589,8.017,8.017,8.017h145.37c4.427,0,8.017-3.588,8.017-8.017
	v-21.378H179.575z"/>
<g>
</g>
<g>
</g>
<g>
</g>
<g>
</g>
<g>
</g>
<g>
</g>
<g>
</g>
<g>
</g>
<g>
</g>
<g>
</g>
<g>
</g>
<g>
</g>
<g>
</g>
<g>
</g>
<g>
</g>
</svg>
