<?xml version="1.0" encoding="iso-8859-1"?>
<!-- Generator: Adobe Illustrator 19.0.0, SVG Export Plug-In . SVG Version: 6.00 Build 0)  -->
<svg version="1.1" id="Layer_1" xmlns="http://www.w3.org/2000/svg" xmlns:xlink="http://www.w3.org/1999/xlink" x="0px" y="0px"
	 viewBox="0 0 512 512" style="enable-background:new 0 0 512 512;" xml:space="preserve">
<path style="fill:#9BAAAB;" d="M136.284,350.597H93.528c-4.427,0-8.017,3.588-8.017,8.017v42.756c0,4.428,3.589,8.017,8.017,8.017
	h42.756c4.427,0,8.017-3.588,8.017-8.017v-42.756C144.301,354.185,140.711,350.597,136.284,350.597z"/>
<path style="fill:#687F82;" d="M136.284,350.597h-8.551v58.789h8.551c4.427,0,8.017-3.588,8.017-8.017v-42.756
	C144.301,354.185,140.711,350.597,136.284,350.597z"/>
<path style="fill:#CDD4D5;" d="M12.642,300.312c-3.013,1.718-4.501,5.024-3.992,8.245l25.653,162.472
	c0.616,3.897,3.974,6.766,7.918,6.766h56.117c4.427,0,8.017-3.589,8.017-8.017V299.29H16.792
	C15.347,299.29,13.898,299.597,12.642,300.312z"/>
<path style="fill:#4ACFD9;" d="M110.63,196.676H16.568c-4.427,0-8.017,3.589-8.017,8.017v102.614c0,4.427,3.589,8.017,8.017,8.017
	h102.079v-110.63C118.647,200.266,115.058,196.676,110.63,196.676z"/>
<path style="fill:#0295AA;" d="M8.551,247.449v59.858c0,4.427,3.589,8.017,8.017,8.017h102.079v-67.875H8.551z"/>
<path style="fill:#FFD1A9;" d="M379.552,26.63c-2.576-1.402-5.715-1.289-8.182,0.304L106.284,197.957l-0.151,115.987
	l265.086,179.574c1.352,0.916,2.921,1.38,4.497,1.38c1.286,0,2.577-0.309,3.756-0.934c2.621-1.391,4.26-4.115,4.26-7.082V33.67
	C383.733,30.735,382.129,28.035,379.552,26.63z"/>
<path style="fill:#FD6A33;" d="M106.22,247.449l-0.087,66.495l265.086,179.574c1.352,0.916,2.921,1.38,4.497,1.38
	c1.286,0,2.577-0.309,3.756-0.934c2.621-1.391,4.26-4.115,4.26-7.082V247.449L106.22,247.449L106.22,247.449z"/>
<path style="fill:#4ACFD9;" d="M409.921,0h-76.96c-4.428,0-8.017,3.588-8.017,8.017v495.967c0,4.428,3.588,8.017,8.017,8.017h76.96
	c4.428,0,8.017-3.588,8.017-8.017V8.017C417.937,3.588,414.349,0,409.921,0z"/>
<path style="fill:#0295AA;" d="M324.944,247.449v256.534c0,4.428,3.588,8.017,8.017,8.017h76.96c4.428,0,8.017-3.588,8.017-8.017
	V247.449H324.944z"/>
<g>
	<path style="fill:#FFFFFF;" d="M384.267,152.852c-4.428,0-8.017-3.588-8.017-8.017V42.221c0-4.428,3.588-8.017,8.017-8.017
		s8.017,3.588,8.017,8.017v102.614C392.284,149.264,388.696,152.852,384.267,152.852z"/>
	<path style="fill:#FFFFFF;" d="M384.267,229.812c-4.428,0-8.017-3.588-8.017-8.017V179.04c0-4.428,3.588-8.017,8.017-8.017
		s8.017,3.588,8.017,8.017v42.756C392.284,226.224,388.696,229.812,384.267,229.812z"/>
</g>
<g>
	<path style="fill:#F0353D;" d="M495.432,255.466h-34.205c-4.428,0-8.017-3.588-8.017-8.017c0-4.428,3.588-8.017,8.017-8.017h34.205
		c4.428,0,8.017,3.588,8.017,8.017C503.449,251.877,499.861,255.466,495.432,255.466z"/>
	<path style="fill:#F0353D;" d="M441.759,182.782c-2.771,0-5.465-1.438-6.95-4.009c-2.214-3.834-0.9-8.737,2.934-10.951
		l29.622-17.102c3.832-2.213,8.738-0.901,10.951,2.934c2.214,3.834,0.9,8.737-2.934,10.951l-29.622,17.102
		C444.498,182.436,443.119,182.782,441.759,182.782z"/>
	<path style="fill:#F0353D;" d="M471.366,345.254c-1.361,0-2.738-0.346-4.001-1.075l-29.622-17.102
		c-3.834-2.214-5.148-7.117-2.934-10.951c2.213-3.836,7.115-5.148,10.951-2.934l29.622,17.102c3.834,2.214,5.148,7.117,2.934,10.951
		C476.832,343.816,474.137,345.254,471.366,345.254z"/>
</g>
<g>
</g>
<g>
</g>
<g>
</g>
<g>
</g>
<g>
</g>
<g>
</g>
<g>
</g>
<g>
</g>
<g>
</g>
<g>
</g>
<g>
</g>
<g>
</g>
<g>
</g>
<g>
</g>
<g>
</g>
</svg>
