<?xml version="1.0" encoding="iso-8859-1"?>
<!-- Generator: Adobe Illustrator 19.0.0, SVG Export Plug-In . SVG Version: 6.00 Build 0)  -->
<svg version="1.1" id="Layer_1" xmlns="http://www.w3.org/2000/svg" xmlns:xlink="http://www.w3.org/1999/xlink" x="0px" y="0px"
	 viewBox="0 0 512 512" style="enable-background:new 0 0 512 512;" xml:space="preserve">
<path style="fill:#365558;" d="M303.031,426.489c-94.008,0-170.489-76.481-170.489-170.489s76.48-170.489,170.489-170.489
	S473.52,161.993,473.52,256S397.039,426.489,303.031,426.489z M303.031,101.545c-85.167,0-154.455,69.288-154.455,154.455
	s69.288,154.455,154.455,154.455S457.486,341.167,457.486,256S388.199,101.545,303.031,101.545z"/>
<path style="fill:#E6EAEA;" d="M491.157,162.472H388.543c-4.427,0-8.017,3.588-8.017,8.017v188.125c0,4.428,3.589,8.017,8.017,8.017
	h102.614c4.427,0,8.017-3.588,8.017-8.017V170.489C499.173,166.06,495.584,162.472,491.157,162.472z"/>
<path style="fill:#CDD4D5;" d="M388.543,162.472c-4.427,0-8.017,3.588-8.017,8.017v188.125c0,4.428,3.589,8.017,8.017,8.017h51.307
	V162.472H388.543z"/>
<path style="fill:#9BAAAB;" d="M499.173,299.29H380.526v59.324c0,4.427,3.589,8.017,8.017,8.017h102.614
	c4.427,0,8.017-3.589,8.017-8.017V299.29z"/>
<g>
	<path style="fill:#687F82;" d="M380.526,299.29v59.324c0,4.427,3.589,8.017,8.017,8.017h51.307v-67.34H380.526z"/>
	<path style="fill:#687F82;" d="M448.401,340.977h-17.102c-4.427,0-8.017-3.588-8.017-8.017c0-4.428,3.589-8.017,8.017-8.017h17.102
		c4.427,0,8.017,3.588,8.017,8.017C456.418,337.389,452.828,340.977,448.401,340.977z"/>
</g>
<path style="fill:#365558;" d="M431.299,324.944c-4.427,0-8.017,3.588-8.017,8.017c0,4.428,3.589,8.017,8.017,8.017h8.551v-16.033
	H431.299z"/>
<path style="fill:#E6EAEA;" d="M328.685,247.983H37.946c-4.427,0-8.017,3.588-8.017,8.017v247.983c0,4.428,3.589,8.017,8.017,8.017
	h290.739c4.427,0,8.017-3.588,8.017-8.017V256C336.701,251.572,333.112,247.983,328.685,247.983z"/>
<path style="fill:#FF8C29;" d="M353.804,461.762H12.827v42.221c0,4.427,3.589,8.017,8.017,8.017h324.944
	c4.427,0,8.017-3.589,8.017-8.017V461.762z"/>
<path style="fill:#CDD4D5;" d="M37.946,247.983c-4.427,0-8.017,3.588-8.017,8.017v247.983c0,4.428,3.589,8.017,8.017,8.017h149.645
	V247.983H37.946z"/>
<g>
	<path style="fill:#FD6A33;" d="M12.827,461.762v42.221c0,4.427,3.589,8.017,8.017,8.017h166.747v-50.238H12.827z"/>
	<path style="fill:#FD6A33;" d="M157.662,469.779h59.858v13.361c0,4.427-3.589,8.017-8.017,8.017h-43.825
		c-4.427,0-8.017-3.589-8.017-8.017V469.779z"/>
</g>
<path style="fill:#F0353D;" d="M157.662,469.779h29.929v21.378h-21.912c-4.427,0-8.017-3.589-8.017-8.017V469.779z"/>
<path style="fill:#E6EAEA;" d="M320.134,0H63.599c-4.427,0-8.017,3.588-8.017,8.017v188.125c0,4.428,3.589,8.017,8.017,8.017
	h256.534c4.427,0,8.017-3.588,8.017-8.017V8.017C328.15,3.588,324.561,0,320.134,0z"/>
<path style="fill:#CDD4D5;" d="M55.582,97.804v98.338c0,4.428,3.589,8.017,8.017,8.017h256.534c4.427,0,8.017-3.588,8.017-8.017
	V97.804H55.582z"/>
<path style="fill:#4ACFD9;" d="M320.134,0H260.81v204.159h59.324c4.427,0,8.017-3.589,8.017-8.017V8.017
	C328.15,3.589,324.561,0,320.134,0z"/>
<path style="fill:#0295AA;" d="M260.81,97.804v106.355h59.324c4.427,0,8.017-3.589,8.017-8.017V97.804H260.81z"/>
<path style="fill:#687F82;" d="M294.48,118.647c-4.427,0-8.017-3.588-8.017-8.017V84.977c0-4.428,3.589-8.017,8.017-8.017
	c4.427,0,8.017,3.588,8.017,8.017v25.653C302.497,115.059,298.908,118.647,294.48,118.647z"/>
<path style="fill:#365558;" d="M286.463,97.804v12.827c0,4.428,3.589,8.017,8.017,8.017c4.427,0,8.017-3.588,8.017-8.017V97.804
	H286.463z"/>
<g>
</g>
<g>
</g>
<g>
</g>
<g>
</g>
<g>
</g>
<g>
</g>
<g>
</g>
<g>
</g>
<g>
</g>
<g>
</g>
<g>
</g>
<g>
</g>
<g>
</g>
<g>
</g>
<g>
</g>
</svg>
