<?xml version="1.0" encoding="iso-8859-1"?>
<!-- Generator: Adobe Illustrator 19.0.0, SVG Export Plug-In . SVG Version: 6.00 Build 0)  -->
<svg version="1.1" id="Layer_1" xmlns="http://www.w3.org/2000/svg" xmlns:xlink="http://www.w3.org/1999/xlink" x="0px" y="0px"
	 viewBox="0 0 512 512" style="enable-background:new 0 0 512 512;" xml:space="preserve">
<path style="fill:#CDD4D5;" d="M364.705,139.142h-217.41c-4.503,0-8.153,3.65-8.153,8.153V303.83c0,4.503,3.65,8.153,8.153,8.153
	h217.41c4.503,0,8.153-3.65,8.153-8.153V147.295C372.858,142.793,369.207,139.142,364.705,139.142z"/>
<path style="fill:#FF8C29;" d="M262.424,3.134C260.88,1.157,258.51,0,256,0c-2.51,0-4.88,1.157-6.424,3.134L140.871,142.276
	c-1.919,2.456-2.27,5.792-0.902,8.593h232.064c1.366-2.802,1.016-6.137-0.903-8.593L262.424,3.134z"/>
<path style="fill:#4ACFD9;" d="M256,169.58c-30.869,0-55.983,25.114-55.983,55.983s25.114,55.983,55.983,55.983
	s55.983-25.114,55.983-55.983S286.869,169.58,256,169.58z"/>
<path style="fill:#FD6A33;" d="M256,395.686c-23.676,0-42.938,19.263-42.938,42.938c0,20.889,30.35,62.092,36.436,70.14
	c1.541,2.038,3.948,3.236,6.503,3.236c2.556,0,4.962-1.198,6.503-3.236c6.085-8.047,36.436-49.251,36.436-70.14
	C298.938,414.948,279.676,395.686,256,395.686z"/>
<path style="fill:#FFD1A9;" d="M269.043,438.426c-0.107-7.102-5.917-12.847-13.042-12.847c-7.127,0-12.937,5.745-13.044,12.847
	c0.508,4.407,5.739,14.864,13.049,26.811C263.307,453.305,268.534,442.848,269.043,438.426z"/>
<path style="fill:#F0353D;" d="M213.062,438.624c0,20.889,30.35,62.092,36.436,70.14c1.541,2.038,3.948,3.236,6.503,3.236V395.686
	C232.324,395.686,213.062,414.948,213.062,438.624z"/>
<g>
	<path style="fill:#FF8C29;" d="M242.957,438.426c0.508,4.406,5.736,14.859,13.043,26.802V425.58
		C248.873,425.58,243.063,431.325,242.957,438.426z"/>
	<path style="fill:#FF8C29;" d="M150.623,296.387c-2.935-1.313-6.368-0.777-8.764,1.366l-82.616,73.919
		c-2.519,2.253-3.386,5.828-2.18,8.986c1.207,3.159,4.236,5.244,7.616,5.244h82.616c4.503,0,8.153-3.65,8.153-8.153V303.83
		C155.448,300.615,153.559,297.699,150.623,296.387z"/>
</g>
<path style="fill:#FD6A33;" d="M452.757,371.674l-82.616-73.919c-2.396-2.143-5.827-2.678-8.764-1.366
	c-2.936,1.312-4.825,4.228-4.825,7.443v73.919c0,4.503,3.65,8.153,8.153,8.153h82.616c3.38,0,6.409-2.085,7.616-5.243
	C456.143,377.502,455.276,373.927,452.757,371.674z"/>
<path style="fill:#FF8C29;" d="M372.858,295.677H139.142v82.072c0,4.503,3.65,8.153,8.153,8.153h217.41
	c4.503,0,8.153-3.65,8.153-8.153V295.677z"/>
<path style="fill:#9BAAAB;" d="M147.295,139.142c-4.503,0-8.153,3.65-8.153,8.153V303.83c0,4.503,3.65,8.153,8.153,8.153H256
	V139.142H147.295z"/>
<path style="fill:#FD6A33;" d="M249.576,3.134L140.871,142.276c-1.919,2.456-2.27,5.792-0.902,8.593H256V0
	C253.49,0,251.12,1.157,249.576,3.134z"/>
<path style="fill:#0295AA;" d="M200.017,225.563c0,30.869,25.114,55.983,55.983,55.983V169.58
	C225.131,169.58,200.017,194.694,200.017,225.563z"/>
<path style="fill:#FD6A33;" d="M139.142,295.677v82.072c0,4.503,3.65,8.153,8.153,8.153H256v-90.225H139.142z"/>
<g>
	<path style="fill:#FFFFFF;" d="M238.607,238.064c-2.086,0-4.173-0.796-5.765-2.388c-3.184-3.184-3.184-8.346,0-11.529
		l21.741-21.741c3.184-3.184,8.346-3.184,11.529,0c3.184,3.184,3.184,8.346,0,11.529l-21.741,21.741
		C242.78,237.268,240.693,238.064,238.607,238.064z"/>
	<path style="fill:#FFFFFF;" d="M260.348,251.108c-2.086,0-4.173-0.796-5.765-2.388c-3.184-3.184-3.184-8.346,0-11.529
		l13.045-13.045c3.184-3.184,8.346-3.184,11.529,0c3.184,3.184,3.184,8.346,0,11.529l-13.045,13.045
		C264.521,250.313,262.434,251.108,260.348,251.108z"/>
	<path style="fill:#FFFFFF;" d="M338.616,272.849c-4.503,0-8.153-3.65-8.153-8.153v-78.268c0-4.503,3.65-8.153,8.153-8.153
		s8.153,3.65,8.153,8.153v78.268C346.769,269.199,343.118,272.849,338.616,272.849z"/>
</g>
<g>
</g>
<g>
</g>
<g>
</g>
<g>
</g>
<g>
</g>
<g>
</g>
<g>
</g>
<g>
</g>
<g>
</g>
<g>
</g>
<g>
</g>
<g>
</g>
<g>
</g>
<g>
</g>
<g>
</g>
</svg>
