<?xml version="1.0" encoding="iso-8859-1"?>
<!-- Generator: Adobe Illustrator 19.0.0, SVG Export Plug-In . SVG Version: 6.00 Build 0)  -->
<svg version="1.1" id="Layer_1" xmlns="http://www.w3.org/2000/svg" xmlns:xlink="http://www.w3.org/1999/xlink" x="0px" y="0px"
	 viewBox="0 0 512 512" style="enable-background:new 0 0 512 512;" xml:space="preserve">
<path style="fill:#4ACFD9;" d="M202.424,113.916c-109.752,0-199.042,89.29-199.042,199.042S92.671,512,202.424,512
	s199.042-89.29,199.042-199.042S312.176,113.916,202.424,113.916z"/>
<path style="fill:#0295AA;" d="M3.382,312.958C3.382,422.71,92.671,512,202.424,512V113.916
	C92.671,113.916,3.382,203.205,3.382,312.958z"/>
<path style="fill:#E6EAEA;" d="M202.424,173.656c-76.812,0-139.302,62.491-139.302,139.302S125.613,452.26,202.424,452.26
	c76.812,0,139.302-62.491,139.302-139.302S279.236,173.656,202.424,173.656z"/>
<g>
	<path style="fill:#CDD4D5;" d="M63.122,312.958c0,76.812,62.491,139.302,139.302,139.302V173.656
		C125.612,173.656,63.122,236.146,63.122,312.958z"/>
	<path style="fill:#CDD4D5;" d="M202.424,224.884c-48.564,0-88.074,39.51-88.074,88.074s39.51,88.074,88.074,88.074
		s88.074-39.51,88.074-88.074S250.988,224.884,202.424,224.884z"/>
</g>
<path style="fill:#9BAAAB;" d="M114.35,312.958c0,48.564,39.51,88.074,88.074,88.074V224.884
	C153.86,224.884,114.35,264.394,114.35,312.958z"/>
<path style="fill:#FD6A33;" d="M202.424,262.856c-27.627,0-50.102,22.475-50.102,50.102c0,27.626,22.475,50.102,50.102,50.102
	c27.626,0,50.102-22.476,50.102-50.102S230.05,262.856,202.424,262.856z"/>
<path style="fill:#F0353D;" d="M152.322,312.958c0,27.626,22.475,50.102,50.102,50.102V262.856
	C174.798,262.856,152.322,285.332,152.322,312.958z"/>
<path style="fill:#365558;" d="M205.371,311.158c-2.024,0-4.049-0.772-5.593-2.317c-3.089-3.089-3.089-8.099,0-11.187
	L386.69,110.742c3.089-3.089,8.099-3.089,11.188,0c3.089,3.089,3.089,8.099,0,11.187L210.964,308.841
	C209.42,310.386,207.395,311.158,205.371,311.158z"/>
<path style="fill:#E6EAEA;" d="M401.218,7.911c0-3.2-1.927-6.084-4.884-7.309c-2.953-1.224-6.358-0.548-8.621,1.715L277.33,112.701
	c-1.484,1.483-2.317,3.496-2.317,5.593v107.4c0,0.121,0.021,0.237,0.026,0.358c0.009,0.205,0.021,0.407,0.045,0.612
	c0.024,0.193,0.06,0.382,0.097,0.571c0.038,0.189,0.076,0.377,0.128,0.563c0.055,0.198,0.122,0.39,0.192,0.583
	c0.041,0.113,0.065,0.229,0.112,0.341c0.025,0.061,0.062,0.115,0.089,0.176c0.083,0.188,0.179,0.367,0.276,0.547
	c0.089,0.165,0.176,0.329,0.275,0.485c0.105,0.166,0.221,0.321,0.339,0.478c0.114,0.153,0.227,0.307,0.351,0.451
	c0.125,0.146,0.262,0.28,0.398,0.416L401.216,107.4V7.911H401.218z"/>
<path style="fill:#9BAAAB;" d="M508.016,112.284c-1.225-2.957-4.109-4.884-7.309-4.884h-99.489L277.342,231.276
	c0.136,0.136,0.27,0.272,0.416,0.398c0.145,0.124,0.297,0.237,0.45,0.351c0.157,0.117,0.313,0.233,0.478,0.339
	c0.156,0.099,0.321,0.187,0.485,0.275c0.18,0.097,0.36,0.193,0.547,0.276c0.06,0.026,0.114,0.063,0.176,0.089
	c0.212,0.088,0.427,0.161,0.642,0.229c0.027,0.008,0.054,0.02,0.081,0.028c0.331,0.101,0.667,0.172,1.003,0.229
	c0.083,0.014,0.167,0.025,0.25,0.037c0.349,0.046,0.699,0.079,1.048,0.079h0.001c0.001,0,0.001,0,0.001,0h107.4
	c2.098,0,4.11-0.833,5.594-2.317L506.3,120.904C508.563,118.642,509.241,115.24,508.016,112.284z"/>
<path style="fill:#687F82;" d="M331.029,177.589c1.431,1.431,3.409,2.317,5.593,2.317H447.3l15.822-15.822H344.533L331.029,177.589z
	"/>
<path style="fill:#9BAAAB;" d="M344.534,45.497l-15.822,15.822v110.677c0,2.184,0.886,4.162,2.317,5.593l13.504-13.504V45.497z"/>
<g>
</g>
<g>
</g>
<g>
</g>
<g>
</g>
<g>
</g>
<g>
</g>
<g>
</g>
<g>
</g>
<g>
</g>
<g>
</g>
<g>
</g>
<g>
</g>
<g>
</g>
<g>
</g>
<g>
</g>
</svg>
