<?xml version="1.0" encoding="iso-8859-1"?>
<!-- Generator: Adobe Illustrator 19.0.0, SVG Export Plug-In . SVG Version: 6.00 Build 0)  -->
<svg version="1.1" id="Layer_1" xmlns="http://www.w3.org/2000/svg" xmlns:xlink="http://www.w3.org/1999/xlink" x="0px" y="0px"
	 viewBox="0 0 512 512" style="enable-background:new 0 0 512 512;" xml:space="preserve">
<path style="fill:#FF8C29;" d="M256,34.205C133.701,34.205,34.205,133.701,34.205,256S133.701,477.795,256,477.795
	S477.795,378.299,477.795,256S378.299,34.205,256,34.205z M256,410.455c-85.167,0-154.455-69.288-154.455-154.455
	S170.833,101.545,256,101.545S410.455,170.833,410.455,256S341.167,410.455,256,410.455z"/>
<path style="fill:#F0353D;" d="M101.545,256c0-85.167,69.288-154.455,154.455-154.455v-67.34
	C133.701,34.205,34.205,133.701,34.205,256S133.701,477.795,256,477.795v-67.34C170.833,410.455,101.545,341.167,101.545,256z"/>
<path style="fill:#0295AA;" d="M256,128.267c-70.433,0-127.733,57.3-127.733,127.733S185.567,383.733,256,383.733
	S383.733,326.433,383.733,256S326.433,128.267,256,128.267z M354.915,204.159c6.982,13.268,11.373,28.1,12.494,43.825h-26.614
	c-0.622-15.304-3.02-30.099-7.039-43.825H354.915z M344.647,188.125h-16.532c-3.125-7.525-6.774-14.612-10.952-21.112
	c-1.769-2.752-3.611-5.359-5.512-7.836C324.467,166.573,335.681,176.443,344.647,188.125z M298.138,247.983
	c-0.283-15.331-1.372-30.141-3.206-43.825h22.052c4.432,13.496,7.079,28.339,7.761,43.825H298.138z M324.747,264.017
	c-0.682,15.486-3.33,30.329-7.761,43.825h-22.052c1.833-13.684,2.922-28.493,3.206-43.825H324.747z M303.676,175.683
	c2.516,3.914,4.821,8.075,6.915,12.442h-18.24c-1.288-6.745-2.776-13.102-4.455-18.979c-1.755-6.143-3.665-11.593-5.723-16.36
	C290.033,158.093,297.322,165.8,303.676,175.683z M239.522,173.55c6.856-23.995,14.219-29.249,16.478-29.249
	s9.622,5.255,16.478,29.249c1.301,4.551,2.471,9.436,3.524,14.575H256h-20.002C237.05,182.987,238.221,178.101,239.522,173.55z
	 M200.349,159.177c-1.902,2.477-3.743,5.084-5.512,7.836c-4.178,6.5-7.826,13.587-10.952,21.112h-16.532
	C176.319,176.443,187.533,166.573,200.349,159.177z M213.862,247.983h-26.608c0.682-15.486,3.33-30.329,7.761-43.825h22.052
	C215.233,217.843,214.145,232.652,213.862,247.983z M217.067,307.841h-22.052c-4.432-13.496-7.079-28.339-7.761-43.825h26.608
	C214.145,279.348,215.233,294.157,217.067,307.841z M157.085,204.159h21.159c-4.019,13.726-6.417,28.52-7.039,43.825H144.59
	C145.712,232.259,150.103,217.427,157.085,204.159z M157.085,307.841c-6.982-13.268-11.373-28.1-12.494-43.825h26.614
	c0.622,15.304,3.02,30.099,7.039,43.825H157.085z M167.353,323.875h16.532c3.125,7.525,6.774,14.612,10.952,21.112
	c1.769,2.752,3.611,5.359,5.512,7.836C187.533,345.427,176.319,335.557,167.353,323.875z M208.325,336.317
	c-2.516-3.914-4.821-8.075-6.915-12.442h18.24c1.288,6.745,2.776,13.102,4.455,18.979c1.755,6.143,3.665,11.593,5.723,16.36
	C221.967,353.907,214.678,346.2,208.325,336.317z M224.105,169.146c-1.679,5.877-3.167,12.235-4.455,18.979h-18.24
	c2.093-4.366,4.397-8.527,6.915-12.442c6.354-9.883,13.643-17.591,21.503-22.898C227.771,157.553,225.86,163.003,224.105,169.146z
	 M272.478,338.45c-6.856,23.995-14.219,29.249-16.478,29.249s-9.622-5.255-16.478-29.249c-1.301-4.551-2.472-9.436-3.524-14.575H256
	h20.002C274.949,329.013,273.779,333.899,272.478,338.45z M278.75,307.841H256h-22.75c-1.913-13.55-3.057-28.379-3.352-43.825H256
	h26.102C281.807,279.462,280.665,294.291,278.75,307.841z M256,247.983h-26.102c0.295-15.446,1.438-30.273,3.352-43.825H256h22.75
	c1.913,13.551,3.057,28.379,3.352,43.825H256z M303.676,336.317c-6.354,9.883-13.643,17.591-21.503,22.898
	c2.058-4.767,3.968-10.218,5.723-16.36c1.679-5.877,3.167-12.235,4.455-18.979h18.24
	C308.497,328.241,306.192,332.402,303.676,336.317z M311.651,352.823c1.902-2.477,3.743-5.084,5.512-7.836
	c4.178-6.5,7.826-13.587,10.952-21.112h16.532C335.681,335.557,324.467,345.427,311.651,352.823z M354.915,307.841h-21.159
	c4.019-13.726,6.417-28.52,7.039-43.825h26.614C366.288,279.741,361.897,294.573,354.915,307.841z"/>
<g>
	<path style="fill:#FFFFFF;" d="M437.04,212.713c-3.496,0-6.711-2.306-7.71-5.837c-2.364-8.358-5.368-16.62-8.93-24.555
		c-1.812-4.039-0.007-8.784,4.031-10.597c4.037-1.813,8.784-0.007,10.597,4.031c3.88,8.646,7.154,17.648,9.73,26.757
		c1.205,4.261-1.272,8.691-5.533,9.896C438.495,212.615,437.762,212.713,437.04,212.713z"/>
	<path style="fill:#FFFFFF;" d="M401.129,144.302c-2.309,0-4.6-0.993-6.186-2.913c-17.593-21.303-40.159-38.519-65.262-49.788
		c-4.039-1.813-5.844-6.558-4.03-10.596c1.813-4.039,6.561-5.844,10.596-4.031c27.336,12.27,51.907,31.015,71.059,54.206
		c2.82,3.413,2.338,8.467-1.077,11.286C404.735,143.701,402.927,144.302,401.129,144.302z"/>
</g>
<g>
	<path style="fill:#365558;" d="M256,118.647c-4.428,0-8.017-3.588-8.017-8.017V8.017C247.983,3.588,251.572,0,256,0
		c4.428,0,8.017,3.588,8.017,8.017V110.63C264.017,115.059,260.428,118.647,256,118.647z"/>
	<path style="fill:#365558;" d="M256,512c-4.428,0-8.017-3.588-8.017-8.017V401.37c0-4.428,3.588-8.017,8.017-8.017
		c4.428,0,8.017,3.588,8.017,8.017v102.614C264.017,508.412,260.428,512,256,512z"/>
	<path style="fill:#365558;" d="M110.63,264.017H8.017C3.588,264.017,0,260.428,0,256c0-4.428,3.588-8.017,8.017-8.017H110.63
		c4.428,0,8.017,3.588,8.017,8.017C118.647,260.428,115.059,264.017,110.63,264.017z"/>
	<path style="fill:#365558;" d="M503.983,264.017H401.37c-4.428,0-8.017-3.588-8.017-8.017c0-4.428,3.588-8.017,8.017-8.017h102.614
		c4.428,0,8.017,3.588,8.017,8.017C512,260.428,508.412,264.017,503.983,264.017z"/>
</g>
<g>
</g>
<g>
</g>
<g>
</g>
<g>
</g>
<g>
</g>
<g>
</g>
<g>
</g>
<g>
</g>
<g>
</g>
<g>
</g>
<g>
</g>
<g>
</g>
<g>
</g>
<g>
</g>
<g>
</g>
</svg>
