<?xml version="1.0" encoding="iso-8859-1"?>
<!-- Generator: Adobe Illustrator 19.0.0, SVG Export Plug-In . SVG Version: 6.00 Build 0)  -->
<svg version="1.1" id="Layer_1" xmlns="http://www.w3.org/2000/svg" xmlns:xlink="http://www.w3.org/1999/xlink" x="0px" y="0px"
	 viewBox="0 0 512 512" style="enable-background:new 0 0 512 512;" xml:space="preserve">
<path style="fill:#E6EAEA;" d="M503.983,55.582H8.017C3.589,55.582,0,59.171,0,63.599v436.109c0,4.428,3.589,8.017,8.017,8.017
	h495.967c4.428,0,8.017-3.588,8.017-8.017V63.599C512,59.171,508.412,55.582,503.983,55.582z"/>
<path style="fill:#CDD4D5;" d="M8.017,55.582C3.589,55.582,0,59.171,0,63.599v436.109c0,4.428,3.589,8.017,8.017,8.017H256V55.582
	H8.017z"/>
<g>
	<path style="fill:#365558;" d="M256,97.269c-4.427,0-8.017-3.588-8.017-8.017v-76.96c0-4.428,3.589-8.017,8.017-8.017
		c4.428,0,8.017,3.588,8.017,8.017v76.96C264.017,93.681,260.428,97.269,256,97.269z"/>
	<path style="fill:#365558;" d="M324.409,97.269c-4.428,0-8.017-3.588-8.017-8.017v-76.96c0-4.428,3.588-8.017,8.017-8.017
		c4.428,0,8.017,3.588,8.017,8.017v76.96C332.426,93.681,328.838,97.269,324.409,97.269z"/>
	<path style="fill:#365558;" d="M392.818,97.269c-4.428,0-8.017-3.588-8.017-8.017v-76.96c0-4.428,3.588-8.017,8.017-8.017
		s8.017,3.588,8.017,8.017v76.96C400.835,93.681,397.247,97.269,392.818,97.269z"/>
	<path style="fill:#365558;" d="M461.228,97.269c-4.428,0-8.017-3.588-8.017-8.017v-76.96c0-4.428,3.588-8.017,8.017-8.017
		s8.017,3.588,8.017,8.017v76.96C469.244,93.681,465.656,97.269,461.228,97.269z"/>
	<path style="fill:#365558;" d="M187.591,97.269c-4.427,0-8.017-3.588-8.017-8.017v-76.96c0-4.428,3.589-8.017,8.017-8.017
		s8.017,3.588,8.017,8.017v76.96C195.608,93.681,192.018,97.269,187.591,97.269z"/>
	<path style="fill:#365558;" d="M119.182,97.269c-4.427,0-8.017-3.588-8.017-8.017v-76.96c0-4.428,3.589-8.017,8.017-8.017
		c4.427,0,8.017,3.588,8.017,8.017v76.96C127.198,93.681,123.609,97.269,119.182,97.269z"/>
	<path style="fill:#365558;" d="M50.772,97.269c-4.427,0-8.017-3.588-8.017-8.017v-76.96c0-4.428,3.589-8.017,8.017-8.017
		s8.017,3.588,8.017,8.017v76.96C58.789,93.681,55.2,97.269,50.772,97.269z"/>
</g>
<path style="fill:#4ACFD9;" d="M469.779,252.259H42.221c-4.427,0-8.017,3.588-8.017,8.017v68.409c0,4.428,3.589,8.017,8.017,8.017
	h427.557c4.428,0,8.017-3.588,8.017-8.017v-68.409C477.795,255.847,474.207,252.259,469.779,252.259z"/>
<path style="fill:#0295AA;" d="M42.221,252.259c-4.427,0-8.017,3.588-8.017,8.017v68.409c0,4.428,3.589,8.017,8.017,8.017H256
	v-84.443H42.221z"/>
<path style="fill:#F0353D;" d="M187.591,123.992H50.772c-4.427,0-8.017,3.588-8.017,8.017v76.96c0,4.428,3.589,8.017,8.017,8.017
	h47.016l14.722,22.083c1.487,2.231,3.989,3.57,6.67,3.57s5.184-1.339,6.67-3.57l14.724-22.083h47.016
	c4.427,0,8.017-3.588,8.017-8.017v-76.96C195.608,127.58,192.018,123.992,187.591,123.992z"/>
<path style="fill:#FFFFFF;" d="M161.937,191.332c-4.427,0-8.017-3.588-8.017-8.017v-25.653c0-4.428,3.589-8.017,8.017-8.017
	s8.017,3.588,8.017,8.017v25.653C169.954,187.744,166.365,191.332,161.937,191.332z"/>
<path style="fill:#FF8C29;" d="M461.228,123.992H324.409c-4.428,0-8.017,3.588-8.017,8.017v76.96c0,4.428,3.588,8.017,8.017,8.017
	h47.016l14.722,22.083c1.487,2.231,3.989,3.57,6.67,3.57c2.681,0,5.184-1.339,6.67-3.57l14.724-22.083h47.016
	c4.428,0,8.017-3.588,8.017-8.017v-76.96C469.244,127.58,465.656,123.992,461.228,123.992z"/>
<path style="fill:#FFFFFF;" d="M435.574,191.332c-4.428,0-8.017-3.588-8.017-8.017v-25.653c0-4.428,3.588-8.017,8.017-8.017
	s8.017,3.588,8.017,8.017v25.653C443.591,187.744,440.003,191.332,435.574,191.332z"/>
<path style="fill:#CDD4D5;" d="M324.409,363.424h-47.016l-14.722-22.083c-1.487-2.231-3.989-3.57-6.67-3.57
	c-2.681,0-5.184,1.339-6.67,3.57l-14.724,22.083h-47.016c-4.427,0-8.017,3.588-8.017,8.017v76.96c0,4.428,3.589,8.017,8.017,8.017
	h136.818c4.428,0,8.017-3.588,8.017-8.017v-76.96C332.426,367.012,328.838,363.424,324.409,363.424z"/>
<path style="fill:#9BAAAB;" d="M249.33,341.34l-14.723,22.083h-47.016c-4.427,0-8.017,3.588-8.017,8.017v76.96
	c0,4.428,3.589,8.017,8.017,8.017H256V337.77C253.319,337.77,250.816,339.11,249.33,341.34z"/>
<path style="fill:#FFFFFF;" d="M298.756,430.764c-4.428,0-8.017-3.588-8.017-8.017v-25.653c0-4.428,3.588-8.017,8.017-8.017
	s8.017,3.588,8.017,8.017v25.653C306.772,427.176,303.184,430.764,298.756,430.764z"/>
<g>
</g>
<g>
</g>
<g>
</g>
<g>
</g>
<g>
</g>
<g>
</g>
<g>
</g>
<g>
</g>
<g>
</g>
<g>
</g>
<g>
</g>
<g>
</g>
<g>
</g>
<g>
</g>
<g>
</g>
</svg>
