<?xml version="1.0" encoding="iso-8859-1"?>
<!-- Generator: Adobe Illustrator 19.0.0, SVG Export Plug-In . SVG Version: 6.00 Build 0)  -->
<svg version="1.1" id="Layer_1" xmlns="http://www.w3.org/2000/svg" xmlns:xlink="http://www.w3.org/1999/xlink" x="0px" y="0px"
	 viewBox="0 0 512 512" style="enable-background:new 0 0 512 512;" xml:space="preserve">
<path style="fill:#E6EAEA;" d="M373.401,139.142H64.679c-4.503,0-8.153,3.649-8.153,8.153v265.24L155.992,512h217.41
	c4.503,0,8.153-3.649,8.153-8.153V147.295C381.554,142.791,377.904,139.142,373.401,139.142z"/>
<path style="fill:#CDD4D5;" d="M64.679,139.142c-4.503,0-8.153,3.649-8.153,8.153v265.24L155.992,512h56.527V139.142H64.679z"/>
<path id="SVGCleanerId_0" style="fill:#9BAAAB;" d="M147.839,412.535H56.527L155.992,512v-91.312
	C155.992,416.185,152.341,412.535,147.839,412.535z"/>
<g>
	<path style="fill:#FF8C29;" d="M325.571,220.671H112.51c-4.503,0-8.153-3.649-8.153-8.153c0-4.504,3.65-8.153,8.153-8.153h213.062
		c4.503,0,8.153,3.649,8.153,8.153C333.724,217.022,330.074,220.671,325.571,220.671z"/>
	<path style="fill:#FF8C29;" d="M325.571,290.242H112.51c-4.503,0-8.153-3.649-8.153-8.153c0-4.504,3.65-8.153,8.153-8.153h213.062
		c4.503,0,8.153,3.649,8.153,8.153C333.724,286.593,330.074,290.242,325.571,290.242z"/>
	<path style="fill:#FF8C29;" d="M325.571,359.813H112.51c-4.503,0-8.153-3.649-8.153-8.153c0-4.504,3.65-8.153,8.153-8.153h213.062
		c4.503,0,8.153,3.649,8.153,8.153C333.724,356.164,330.074,359.813,325.571,359.813z"/>
	<path style="fill:#FF8C29;" d="M325.571,429.384H112.51c-4.503,0-8.153-3.649-8.153-8.153s3.65-8.153,8.153-8.153h213.062
		c4.503,0,8.153,3.649,8.153,8.153S330.074,429.384,325.571,429.384z"/>
</g>
<g>
	<path style="fill:#F0353D;" d="M112.51,204.365c-4.503,0-8.153,3.649-8.153,8.153c0,4.504,3.65,8.153,8.153,8.153h100.009v-16.306
		H112.51z"/>
	<path style="fill:#F0353D;" d="M112.51,273.936c-4.503,0-8.153,3.649-8.153,8.153c0,4.504,3.65,8.153,8.153,8.153h100.009v-16.306
		H112.51z"/>
	<path style="fill:#F0353D;" d="M104.357,351.66c0,4.504,3.65,8.153,8.153,8.153h100.009v-16.306H112.51
		C108.007,343.507,104.357,347.157,104.357,351.66z"/>
	<path style="fill:#F0353D;" d="M104.357,421.231c0,4.504,3.65,8.153,8.153,8.153h100.009v-16.306H112.51
		C108.007,413.079,104.357,416.728,104.357,421.231z"/>
</g>
<g>
	<path id="SVGCleanerId_0_1_" style="fill:#9BAAAB;" d="M147.839,412.535H56.527L155.992,512v-91.312
		C155.992,416.185,152.341,412.535,147.839,412.535z"/>
</g>
<path style="fill:#4ACFD9;" d="M447.321,0H125.554c-4.503,0-8.153,3.649-8.153,8.153v113.053c0,3.463,2.187,6.546,5.455,7.693
	c3.267,1.146,6.902,0.103,9.065-2.6l25.38-31.726h81.849v278.828c0,4.504,3.65,8.153,8.153,8.153h78.268
	c4.503,0,8.153-3.649,8.153-8.153V94.573h81.849l25.38,31.727c2.162,2.702,5.796,3.745,9.065,2.6
	c3.268-1.147,5.455-4.231,5.455-7.693V8.153C455.474,3.649,451.823,0,447.321,0z"/>
<path style="fill:#0295AA;" d="M125.554,0c-4.503,0-8.153,3.649-8.153,8.153v113.053c0,3.463,2.187,6.546,5.455,7.693
	c3.267,1.146,6.902,0.103,9.065-2.6l25.38-31.726h81.849v278.828c0,4.504,3.65,8.153,8.153,8.153h35.873V0H125.554z"/>
<g>
	<path style="fill:#FFFFFF;" d="M425.58,46.743h-56.527c-4.503,0-8.153-3.649-8.153-8.153s3.65-8.153,8.153-8.153h56.527
		c4.503,0,8.153,3.649,8.153,8.153S430.082,46.743,425.58,46.743z"/>
	<path style="fill:#FFFFFF;" d="M338.616,46.743h-39.134c-4.503,0-8.153-3.649-8.153-8.153s3.65-8.153,8.153-8.153h39.134
		c4.503,0,8.153,3.649,8.153,8.153S343.118,46.743,338.616,46.743z"/>
</g>
<g>
</g>
<g>
</g>
<g>
</g>
<g>
</g>
<g>
</g>
<g>
</g>
<g>
</g>
<g>
</g>
<g>
</g>
<g>
</g>
<g>
</g>
<g>
</g>
<g>
</g>
<g>
</g>
<g>
</g>
</svg>
